<?xml version="1.0" encoding="utf-8"?>
<!-- Generator: Adobe Illustrator 16.0.0, SVG Export Plug-In . SVG Version: 6.00 Build 0)  -->
<!DOCTYPE svg PUBLIC "-//W3C//DTD SVG 1.1//EN" "http://www.w3.org/Graphics/SVG/1.1/DTD/svg11.dtd">
<svg version="1.1" id="Layer_1" xmlns="http://www.w3.org/2000/svg" xmlns:xlink="http://www.w3.org/1999/xlink" x="0px" y="0px"
	 width="802.46px" height="226.489px" viewBox="0 0 802.46 226.489" enable-background="new 0 0 802.46 226.489"
	 xml:space="preserve">
<path fill="#1D5B99" d="M428.2,104.589c-5.211-5.739-11.57-8.844-19.396-8.844c-12.729,0-22.575,10.952-22.575,23.008
	c0,13.462,9.699,23.274,23.461,23.274c7.518,0,13.59-3.359,18.509-8.694v16.127c-5.932,3.082-11.852,4.353-18.672,4.353
	c-19.976,0-36.321-14.851-36.321-34.5c0-20.331,16.22-35.32,37.058-35.338c6.084,0,12.725,1.389,17.936,4.334V104.589z"/>
<path fill="#1D5B99" d="M243.953,40.884V94.76l0.281,0.024c4.068-7.024,12.158-10.809,20.414-10.809
	c19.105,0,24.021,12.484,24.021,28.451v100.401h-13.021v-98.835c0-11.227-1.604-18.796-14.901-18.796
	c-16.794,0-16.794,14.307-16.794,26.219v30.153h-13.032V40.884H243.953z"/>
<path fill="#1D5B99" d="M310.92,96.882h0.299c5.321-7.855,13.437-12.907,23.569-12.907c19.554,0,31.859,16.408,31.859,34.368
	c0,18.774-11.614,35.47-32.437,35.47c-9.555,0-17.769-5.057-22.992-12.475h-0.299v71.52h-13.019V85.948h13.019V96.882z
	 M353.599,118.753c0-12.765-7.958-23.557-21.996-23.557c-13.456,0-21.408,11.358-21.408,23.557c0,12.343,7.651,23.841,21.408,23.841
	C345.799,142.594,353.599,131.644,353.599,118.753z"/>
<path fill="#0077A6" d="M438.318,94.695c0-4.074,2.483-6.789,5.956-6.789c3.478,0,5.957,2.715,5.957,6.789v16.637h0.168
	c2.481-3.141,7.114-4.245,10.841-4.245c9.347,0,16.298,6.112,16.298,16.467v23.429c0,4.074-2.483,6.789-5.957,6.789
	c-3.476,0-5.96-2.715-5.96-6.789v-21.305c0-5.688-3.472-8.403-7.775-8.403c-4.884,0-7.614,3.647-7.614,8.403v21.305
	c0,4.074-2.479,6.789-5.957,6.789c-3.473,0-5.956-2.715-5.956-6.789V94.695z"/>
<path fill="#0077A6" d="M495.574,134.76c0.826,6.024,5.708,8.826,11.255,8.826c6.12,0,10.34-4.921,13.483-4.921
	c2.564,0,4.884,2.632,4.884,5.262c0,5.262-10.592,10.356-19.444,10.356c-13.402,0-22.34-10.016-22.34-23.515
	c0-12.392,8.768-23.682,21.346-23.682c12.908,0,21.427,12.054,21.427,22.239c0,3.65-1.568,5.434-5.211,5.434H495.574z
	 M514.273,126.61c-0.661-5.347-3.971-9.335-9.516-9.335c-5.296,0-8.853,4.156-9.432,9.335H514.273z"/>
<path fill="#0077A6" d="M561.681,120.668c-2.979,0-5.627-2.376-9.43-2.376c-6.789,0-10.015,6.196-10.015,12.477
	c0,6.028,3.559,12.307,10.015,12.307c2.977,0,7.443-2.545,8.852-2.545c2.812,0,5.129,2.461,5.129,5.349
	c0,6.28-10.259,8.404-14.561,8.404c-12.823,0-21.348-10.78-21.348-23.515c0-12.392,8.771-23.682,21.348-23.682
	c4.714,0,14.561,1.784,14.561,7.725C566.231,117.358,564.492,120.668,561.681,120.668z"/>
<path fill="#0077A6" d="M572.022,94.695c0-4.074,2.483-6.789,5.957-6.789c3.476,0,5.959,2.715,5.959,6.789v28.521l13.071-12.987
	c1.905-1.867,3.805-2.63,5.381-2.63c2.979,0,5.044,2.799,5.044,5.517c0,1.782-0.578,3.225-2.312,4.838l-10.592,9.675l13.98,16.807
	c1.077,1.275,1.491,2.717,1.491,4.076c0,3.228-2.483,5.772-5.629,5.772c-2.148,0-3.806-1.359-5.709-3.735l-14.561-18.42h-0.165
	v14.854c0,4.074-2.483,6.789-5.959,6.789c-3.474,0-5.957-2.715-5.957-6.789V94.695z"/>
<path fill="#347C99" d="M622.74,141.041c3.561,0,6.456,2.972,6.456,6.622s-2.896,6.621-6.456,6.621
	c-3.559,0-6.448-2.971-6.448-6.621S619.182,141.041,622.74,141.041z"/>
<path fill="#0077A6" d="M679.835,130.769c0,12.734-8.527,23.515-21.352,23.515c-12.823,0-21.348-10.78-21.348-23.515
	c0-12.392,8.771-23.682,21.348-23.682C671.063,107.087,679.835,118.377,679.835,130.769z M649.053,130.769
	c0,5.857,2.979,12.307,9.431,12.307c6.451,0,9.434-6.449,9.434-12.307c0-5.855-2.894-12.477-9.434-12.477
	C651.946,118.292,649.053,124.914,649.053,130.769z"/>
<path fill="#0077A6" d="M686.367,113.708c0-4.073,3.146-6.11,6.123-6.11c3.144,0,5.791,1.188,5.791,5.091h0.166
	c2.23-3.395,4.633-5.091,8.356-5.091c2.896,0,5.791,2.121,5.791,6.535c0,3.99-3.558,4.245-7.114,5.943
	c-3.559,1.698-7.199,3.31-7.199,8.148v18.759c0,4.074-2.479,6.789-5.957,6.789c-3.474,0-5.957-2.715-5.957-6.789V113.708z"/>
<path fill="#0077A6" d="M756.445,149.7c0,14.683-9.348,22.068-22.913,22.068c-4.887,0-18.783-2.46-18.783-9.167
	c0-2.293,2.479-5.347,4.797-5.347c3.803,0,8.022,3.82,14.893,3.82c5.793,0,10.095-3.483,10.095-9.679v-2.885h-0.168
	c-2.479,3.735-6.536,5.772-11.996,5.772c-12.493,0-18.367-11.292-18.367-23.428c0-12.31,7.611-23.769,19.609-23.769
	c4.054,0,8.688,1.868,10.922,5.602c0.741-3.226,2.648-5.091,5.957-5.091c3.476,0,5.955,2.715,5.955,6.79V149.7z M735.182,118.292
	c-6.205,0-9.269,6.621-9.269,12.309c0,6.535,3.063,12.475,9.269,12.475c6.373,0,9.352-6.109,9.352-12.051
	S741.719,118.292,735.182,118.292z"/>
<path fill="#0077A6" d="M211.264,107.183C210.545,50.326,164.261,4.413,107.223,4.426C49.766,4.413,3.188,51.003,3.188,108.472
	c0,56.602,45.224,102.616,101.471,103.979v0.272l106.628-0.055V107.183H211.264z M178.12,63.209l-76.081,117.428
	c-1.973,3.047-5.179,5.084-8.779,5.575c-3.596,0.491-7.231-0.608-9.95-3.015l-42.991-38.037c-5.161-4.564-5.641-12.445-1.079-17.604
	c4.563-5.158,12.444-5.641,17.603-1.077c0,0,20.011,17.705,32.141,28.437c12.663-19.544,68.204-105.27,68.204-105.27
	c3.745-5.781,11.465-7.431,17.245-3.686C180.215,49.706,181.866,57.428,178.12,63.209z"/>
<g>
	<path fill="#1D5B99" d="M331.811,185.873c0-1.089,0.564-1.936,1.895-1.936h6.25c5.081,0,7.742,3.589,7.742,6.854
		c0,3.146-1.653,5.564-3.992,6.291v0.08c3.468,0.363,6.21,3.307,6.21,7.097c0,4.517-3.347,8.388-9.396,8.388h-6.814
		c-1.331,0-1.895-0.847-1.895-1.936V185.873z M335.359,196.074h4.032c3.024,0,4.758-2.016,4.758-4.637
		c0-2.581-1.492-4.436-4.637-4.436h-4.153V196.074z M335.359,209.583h5c3.468,0,6.008-2.138,6.008-5.323
		c0-2.943-2.137-5.282-5.847-5.282h-5.161V209.583z"/>
	<path fill="#1D5B99" d="M356.528,203.292c0,3.67,2.339,6.533,6.331,6.533c4.718,0,5.927-2.903,7.258-2.903
		c0.646,0,1.291,0.564,1.291,1.572c0,1.734-4.395,4.396-8.589,4.396c-6.855,0-9.839-5.282-9.839-10.968
		c0-5.807,3.629-10.969,9.637-10.969c5.847,0,9.234,5.283,9.234,10.444c0,1.25-0.444,1.895-1.976,1.895H356.528z M368.303,200.63
		c0-3.064-1.774-6.612-5.686-6.612c-4.395-0.162-5.968,3.347-6.089,6.612H368.303z"/>
	<path fill="#1D5B99" d="M393.747,190.953c2.944,0,7.137,1.573,7.137,3.791c0,0.766-0.524,1.451-1.613,1.451
		c-1.532,0-2.137-2.177-5.524-2.177c-2.016,0-3.75,0.887-3.75,2.701c0,3.75,11.452,3.347,11.452,9.557
		c0,4.476-3.831,6.613-7.823,6.613c-4.516,0-8.064-2.259-8.064-4.073c0-0.968,0.686-1.612,1.452-1.612
		c1.573,0,2.863,2.621,6.734,2.621c2.581,0,4.153-1.452,4.153-2.903c0-4.194-11.452-3.952-11.452-9.92
		C386.448,193.05,390.158,190.953,393.747,190.953z"/>
	<path fill="#1D5B99" d="M405.642,192.848c0-1.169,0.686-1.896,1.774-1.896s1.773,0.727,1.773,1.896v11.371
		c0,3.67,1.613,5.605,4.96,5.605s4.96-1.936,4.96-5.605v-11.371c0-1.169,0.686-1.896,1.774-1.896s1.774,0.727,1.774,1.896v11.492
		c0,6.29-4.194,8.549-8.509,8.549s-8.508-2.259-8.508-8.549V192.848z"/>
	<path fill="#1D5B99" d="M428.142,192.848c0-1.169,0.686-1.896,1.774-1.896s1.773,0.727,1.773,1.896v1.814h0.081
		c0.807-1.653,2.782-3.71,4.839-3.71c1.25,0,1.976,0.807,1.976,1.815c0,1.008-0.726,1.652-2.218,1.935
		c-2.097,0.363-4.678,1.936-4.678,6.089v10.202c0,1.17-0.685,1.896-1.773,1.896s-1.774-0.726-1.774-1.896V192.848z"/>
	<path fill="#1D5B99" d="M443.907,203.292c0,3.67,2.339,6.533,6.331,6.533c4.718,0,5.928-2.903,7.258-2.903
		c0.646,0,1.291,0.564,1.291,1.572c0,1.734-4.396,4.396-8.589,4.396c-6.855,0-9.839-5.282-9.839-10.968
		c0-5.807,3.629-10.969,9.637-10.969c5.847,0,9.234,5.283,9.234,10.444c0,1.25-0.443,1.895-1.976,1.895H443.907z M455.682,200.63
		c0-3.064-1.774-6.612-5.686-6.612c-4.396-0.162-5.968,3.347-6.089,6.612H455.682z"/>
	<path fill="#1D5B99" d="M472.335,193.897c-0.162-0.524-0.282-1.009-0.282-1.371c0-0.686,0.483-1.573,1.693-1.573
		c0.766,0,1.492,0.282,1.976,1.815l4.557,14.637h0.081l4.476-14.113c0.483-1.532,0.807-2.339,2.097-2.339s1.613,0.807,2.097,2.339
		l4.476,14.113h0.081l4.557-14.637c0.483-1.533,1.21-1.815,1.976-1.815c1.21,0,1.693,0.888,1.693,1.573
		c0,0.362-0.121,0.847-0.282,1.371l-5.887,17.137c-0.484,1.371-1.049,1.855-2.057,1.855c-0.968,0-1.572-0.484-2.017-1.855
		l-4.597-14.476h-0.08l-4.598,14.476c-0.443,1.371-1.048,1.855-2.016,1.855c-1.008,0-1.572-0.484-2.057-1.855L472.335,193.897z"/>
	<path fill="#1D5B99" d="M507.294,203.292c0,3.67,2.339,6.533,6.331,6.533c4.718,0,5.928-2.903,7.258-2.903
		c0.646,0,1.291,0.564,1.291,1.572c0,1.734-4.396,4.396-8.589,4.396c-6.855,0-9.839-5.282-9.839-10.968
		c0-5.807,3.629-10.969,9.637-10.969c5.847,0,9.234,5.283,9.234,10.444c0,1.25-0.443,1.895-1.976,1.895H507.294z M519.068,200.63
		c0-3.064-1.774-6.612-5.686-6.612c-4.396-0.162-5.968,3.347-6.089,6.612H519.068z"/>
	<path fill="#1D5B99" d="M528.182,185.187c0.403-0.767,0.847-1.492,1.895-1.492c0.848,0,1.613,0.646,1.613,1.532
		c0,0.443-0.121,0.847-0.443,1.492l-2.258,4.436c-0.403,0.766-0.848,1.492-1.896,1.492c-0.847,0-1.613-0.646-1.613-1.532
		c0-0.444,0.121-0.848,0.443-1.492L528.182,185.187z"/>
	<path fill="#1D5B99" d="M535.843,192.848c0-1.169,0.686-1.896,1.774-1.896s1.773,0.727,1.773,1.896v1.814h0.081
		c0.807-1.653,2.782-3.71,4.839-3.71c1.25,0,1.976,0.807,1.976,1.815c0,1.008-0.726,1.652-2.218,1.935
		c-2.097,0.363-4.678,1.936-4.678,6.089v10.202c0,1.17-0.685,1.896-1.773,1.896s-1.774-0.726-1.774-1.896V192.848z"/>
	<path fill="#1D5B99" d="M551.608,203.292c0,3.67,2.339,6.533,6.331,6.533c4.718,0,5.928-2.903,7.258-2.903
		c0.646,0,1.291,0.564,1.291,1.572c0,1.734-4.396,4.396-8.589,4.396c-6.855,0-9.839-5.282-9.839-10.968
		c0-5.807,3.629-10.969,9.637-10.969c5.847,0,9.234,5.283,9.234,10.444c0,1.25-0.443,1.895-1.976,1.895H551.608z M563.383,200.63
		c0-3.064-1.774-6.612-5.686-6.612c-4.396-0.162-5.968,3.347-6.089,6.612H563.383z"/>
	<path fill="#1D5B99" d="M582.012,192.848c0-1.169,0.686-1.896,1.774-1.896s1.773,0.727,1.773,1.896v1.814h0.081
		c0.807-1.653,2.782-3.71,4.839-3.71c1.25,0,1.976,0.807,1.976,1.815c0,1.008-0.726,1.652-2.218,1.935
		c-2.097,0.363-4.678,1.936-4.678,6.089v10.202c0,1.17-0.685,1.896-1.773,1.896s-1.774-0.726-1.774-1.896V192.848z"/>
	<path fill="#1D5B99" d="M597.777,203.292c0,3.67,2.339,6.533,6.331,6.533c4.718,0,5.928-2.903,7.258-2.903
		c0.646,0,1.291,0.564,1.291,1.572c0,1.734-4.396,4.396-8.589,4.396c-6.855,0-9.839-5.282-9.839-10.968
		c0-5.807,3.629-10.969,9.637-10.969c5.847,0,9.234,5.283,9.234,10.444c0,1.25-0.443,1.895-1.977,1.895H597.777z M609.552,200.63
		c0-3.064-1.774-6.612-5.686-6.612c-4.396-0.162-5.968,3.347-6.089,6.612H609.552z"/>
	<path fill="#1D5B99" d="M634.875,211.115c0,6.371-3.871,10.242-9.678,10.242c-3.67,0-8.226-2.097-8.226-3.911
		c0-0.727,0.362-1.653,1.491-1.653c1.613,0,3.186,2.5,7.017,2.5c4.517,0,5.847-3.549,5.847-6.613v-1.854h-0.08
		c-1.089,1.854-3.024,3.064-5.444,3.064c-6.048,0-9.436-5.282-9.436-10.968s3.388-10.969,9.436-10.969
		c2.299,0,4.517,1.412,5.444,2.702h0.08v-0.968c0-1.25,0.928-1.734,1.896-1.734c0.686,0,1.653,0.484,1.653,1.734V211.115z
		 M625.802,209.825c4.355,0,5.888-4.274,5.888-7.903c0-3.63-1.532-7.903-5.888-7.903c-4.354,0-5.887,4.273-5.887,7.903
		C619.915,205.55,621.447,209.825,625.802,209.825z"/>
	<path fill="#1D5B99" d="M642.294,183.695c1.209,0,2.177,0.968,2.177,2.178c0,1.209-0.968,2.177-2.177,2.177
		c-1.21,0-2.178-0.968-2.178-2.177C640.116,184.663,641.084,183.695,642.294,183.695z M644.067,210.994
		c0,1.17-0.685,1.896-1.773,1.896s-1.774-0.726-1.774-1.896v-18.146c0-1.169,0.686-1.896,1.774-1.896s1.773,0.727,1.773,1.896
		V210.994z"/>
	<path fill="#1D5B99" d="M656.366,190.953c2.943,0,7.138,1.573,7.138,3.791c0,0.766-0.524,1.451-1.613,1.451
		c-1.532,0-2.138-2.177-5.524-2.177c-2.016,0-3.75,0.887-3.75,2.701c0,3.75,11.452,3.347,11.452,9.557
		c0,4.476-3.831,6.613-7.823,6.613c-4.516,0-8.064-2.259-8.064-4.073c0-0.968,0.686-1.612,1.451-1.612
		c1.573,0,2.863,2.621,6.734,2.621c2.581,0,4.153-1.452,4.153-2.903c0-4.194-11.452-3.952-11.452-9.92
		C649.067,193.05,652.777,190.953,656.366,190.953z"/>
	<path fill="#1D5B99" d="M669.391,186.558c0-1.17,0.686-1.896,1.774-1.896s1.774,0.726,1.774,1.896v4.637h1.451
		c1.17,0,1.774,0.564,1.774,1.532s-0.604,1.532-1.774,1.532h-1.451v16.734c0,1.17-0.686,1.896-1.774,1.896s-1.774-0.726-1.774-1.896
		v-16.734h-1.451c-1.17,0-1.774-0.564-1.774-1.532s0.604-1.532,1.774-1.532h1.451V186.558z"/>
	<path fill="#1D5B99" d="M681.81,203.292c0,3.67,2.339,6.533,6.331,6.533c4.718,0,5.928-2.903,7.258-2.903
		c0.646,0,1.291,0.564,1.291,1.572c0,1.734-4.396,4.396-8.589,4.396c-6.855,0-9.839-5.282-9.839-10.968
		c0-5.807,3.629-10.969,9.637-10.969c5.847,0,9.234,5.283,9.234,10.444c0,1.25-0.443,1.895-1.976,1.895H681.81z M693.584,200.63
		c0-3.064-1.774-6.612-5.686-6.612c-4.396-0.162-5.968,3.347-6.089,6.612H693.584z"/>
	<path fill="#1D5B99" d="M701.326,192.848c0-1.169,0.686-1.896,1.774-1.896s1.773,0.727,1.773,1.896v1.814h0.081
		c0.807-1.653,2.782-3.71,4.839-3.71c1.25,0,1.976,0.807,1.976,1.815c0,1.008-0.726,1.652-2.218,1.935
		c-2.097,0.363-4.678,1.936-4.678,6.089v10.202c0,1.17-0.685,1.896-1.773,1.896s-1.774-0.726-1.774-1.896V192.848z"/>
	<path fill="#1D5B99" d="M717.092,203.292c0,3.67,2.339,6.533,6.331,6.533c4.718,0,5.928-2.903,7.258-2.903
		c0.646,0,1.291,0.564,1.291,1.572c0,1.734-4.396,4.396-8.589,4.396c-6.855,0-9.839-5.282-9.839-10.968
		c0-5.807,3.629-10.969,9.637-10.969c5.847,0,9.234,5.283,9.234,10.444c0,1.25-0.443,1.895-1.977,1.895H717.092z M728.866,200.63
		c0-3.064-1.774-6.612-5.686-6.612c-4.396-0.162-5.968,3.347-6.089,6.612H728.866z"/>
	<path fill="#1D5B99" d="M750.64,209.945h-0.08c-1.009,1.936-2.903,2.944-5.727,2.944c-5.807,0-9.153-5.282-9.153-10.968
		s3.347-10.969,9.153-10.969c2.823,0,4.799,1.573,5.727,2.903h0.08v-10.443c0-1.169,0.686-1.896,1.774-1.896
		s1.774,0.727,1.774,1.896v27.581c0,1.17-0.686,1.896-1.774,1.896s-1.774-0.726-1.774-1.896V209.945z M745.115,194.018
		c-4.354,0-5.887,4.273-5.887,7.903c0,3.629,1.532,7.903,5.887,7.903c4.355,0,5.888-4.274,5.888-7.903
		C751.003,198.292,749.471,194.018,745.115,194.018z"/>
</g>
<g>
	<path fill="#1D5B99" d="M768.027,88.182h-3.609c-0.679,0-1.167-0.353-1.167-1.113s0.488-1.113,1.167-1.113h9.607
		c0.679,0,1.167,0.353,1.167,1.113s-0.488,1.113-1.167,1.113h-3.609v15.986c0,0.787-0.462,1.275-1.194,1.275
		c-0.733,0-1.194-0.488-1.194-1.275V88.182z"/>
	<path fill="#1D5B99" d="M778.422,104.412c-0.109,0.841-0.651,1.031-1.276,1.031c-0.732,0-1.112-0.488-1.112-1.221
		c0-0.271,0.055-0.624,0.136-1.085l2.633-15.524c0.244-1.357,1.004-1.818,1.872-1.818c0.95,0,1.466,0.353,1.737,1.249l4.125,14.14
		h0.055l4.125-14.14c0.271-0.896,0.787-1.249,1.737-1.249c0.868,0,1.629,0.461,1.873,1.818l2.633,15.524
		c0.081,0.461,0.136,0.814,0.136,1.085c0,0.733-0.381,1.221-1.113,1.221c-0.624,0-1.167-0.19-1.275-1.031l-2.253-15.524h-0.054
		l-4.614,15.579c-0.244,0.787-0.679,0.977-1.222,0.977s-0.977-0.19-1.221-0.977l-4.614-15.579h-0.055L778.422,104.412z"/>
</g>
</svg>
