<svg id="Layer_1" data-name="Layer 1" xmlns="http://www.w3.org/2000/svg" viewBox="0 0 595.58 65.51"><title>swirl</title><path d="M-.06,31c27.33,0,276.8,0,353.56,16.51C434.75,65,422.75,78,452,79s80.25-48.5,95.5-48.5c14.13,0,26.33,16.75,47.74,19.2" transform="translate(0.13 -14)" style="fill:none;stroke:#fff;stroke-miterlimit:10"/><path d="M0,62.52c27.49,0,276.8,0,353.53-16.51,81.25-17.5,69.25-30.5,98.5-31.5S532.25,63,547.5,63c14.13,0,26.32-16.73,47.71-19.19" transform="translate(0.13 -14)" style="fill:none;stroke:#fff;stroke-miterlimit:10"/><path d="M-.13,36.51C24.83,36.6,291.12,37.57,324,39c0,0,106.5,14,127,14,18.93,0,114.63-10.24,144.12-18.5" transform="translate(0.13 -14)" style="fill:none;stroke:#fff;stroke-miterlimit:10"/><path d="M-.13,57c25-.09,291.25-1.06,324.13-2.49,0,0,106.5-14,127-14,18.94,0,114.7,10.24,144.15,18.51" transform="translate(0.13 -14)" style="fill:none;stroke:#fff;stroke-miterlimit:10"/><path d="M-.09,37.64c21.48.83,132.39,5.58,193.87,16.61C262.06,66.5,388,62.75,411.47,60s71-11.75,126.48-3.25" transform="translate(0.13 -14)" style="fill:none;stroke:#fff;stroke-miterlimit:10"/><path d="M0,55.86c21.7-.85,132.39-5.6,193.78-16.61C262.06,27,388,30.75,411.47,33.5s71,11.75,126.48,3.25c37-5.68,51.67-8.34,57.32-9.49" transform="translate(0.13 -14)" style="fill:none;stroke:#fff;stroke-miterlimit:10"/><path d="M0,41.93c16.76.58,161.52,5.94,229.53,19.82,72.25,14.75,131.25,12.25,171.25,4s78.75-13.5,123-9c31.77,3.23,58.76,7.49,71.47,9.64" transform="translate(0.13 -14)" style="fill:none;stroke:#fff;stroke-miterlimit:10"/><path d="M0,53.33c16.79-.58,161.53-5.94,229.53-19.82,72.25-14.75,131.25-12.25,171.25-4s78.75,13.5,123,9c31.73-3.23,58.7-7.48,71.42-9.63" transform="translate(0.13 -14)" style="fill:none;stroke:#fff;stroke-miterlimit:10"/><path d="M-.09,54.92a678.38,678.38,0,0,0,72.76-.75C130.67,52,158.5,47.67,179,44s117.67-9.67,145-9.17,46.17,7.84,67.5,18,38.67,17.84,61,16.34S525.33,56.5,541.83,47,590,26.67,590,26.67l5.27-2" transform="translate(0.13 -14)" style="fill:none;stroke:#fff;stroke-miterlimit:10"/><path d="M-.06,39.1a680.86,680.86,0,0,1,72.73.75C130.67,42,158.5,46.35,179,50s117.67,9.67,145,9.17,46.17-7.84,67.5-18,38.67-17.84,61-16.34S525.33,37.52,541.83,47,590,67.35,590,67.35l5.16,2.26" transform="translate(0.13 -14)" style="fill:none;stroke:#fff;stroke-miterlimit:10"/></svg>